#!OML:ASF F:\VICON\USERDATA\INSTALL\rory3\rory3.ASF
:FULLY-SPECIFIED
:DEGREES
26
root 0.5410781009821892 17.874710413861 -9.079759744587301 -0.24856094120337646 -3.615459129477933 -7.920249028758699
lfemur -24.731190514466938 -5.79973604375273 -9.691308974825366
ltibia 11.424114996720359
lfoot -7.847417536549434 5.839080574490491
ltoes -5.497831478372298
rfemur 6.577172116438126 5.995868670039261 35.09656174769494
rtibia 24.42392359502054
rfoot -18.350030576655584 -7.320417906797557
rtoes -0.7947317921775774
lowerback 10.005498612020265 1.6729225526985274 6.961330890536852
upperback -1.2592656918530583 2.8179270627721986 2.1838277473740186
thorax -6.069276984297391 1.2043374846729435 -1.4689088099428027
lowerneck -15.669668429083794 -3.242863892371553 -1.4872373331946331
upperneck 22.199629432828566 -4.1892647741630835 0.17435361938472832
head 9.6603975509496 -2.0619771825365705 -0.29929079039066864
lclavicle -1.3877496940847123e-15 -1.8439946386174236e-15
lhumerus -36.5751245897235 12.1533655011498 79.83262919460553
lradius 16.549684071890965
lwrist 1.2811728628772356
lhand -26.518392081148072 24.390225927211826
lfingers 7.125019999999999
lthumb 0.033002903629926084 54.4886663549061
rclavicle -1.3864002968790753e-15 -1.841402155074017e-15
rhumerus -20.9220987338484 -11.234190169711699 -81.00651181332137
rradius 30.72069596668007
rwrist -2.2567570996881994
rhand -18.16805900835983 23.461244514052744
rfingers 7.125019999999999
rthumb 8.188332135695928 -6.174857069511322
27
root 0.5878842032423537 17.819905104235247 -8.290128651111663 -0.2873360361206907 -3.7527526834536875 -7.536467885997499
lfemur -24.191049865082867 -4.8985599281258425 -10.74564191758182
ltibia 11.352041380427202
lfoot -7.012561003586466 4.569999110195418
ltoes -4.315042647198087
rfemur 8.470769318116156 6.1807186394236755 34.3882839380305
rtibia 25.73439391498043
rfoot -17.579772902986694 -6.380994275422867
rtoes -4.3328119784411445
lowerback 9.825770215218231 1.8865784522994886 6.857723680013439
upperback -1.067975426037911 2.9064082049682356 1.9950224730351693
thorax -5.794752713267326 1.2583290260620859 -1.4242260713216528
lowerneck -15.615665539085814 -3.3316455199329624 -1.3752044396365
upperneck 22.10154402965278 -4.361138488817008 0.16407967444320354
head 9.673995861887924 -2.1289611786412284 -0.36077884487789336
lclavicle -1.3883894506152296e-15 -1.8445904535083845e-15
lhumerus -36.91150007645259 12.964897768748717 79.38484946198679
lradius 14.974456733867537
lwrist -1.7511052090571861
lhand -26.435145651588286 23.790470146038434
lfingers 7.125019999999999
lthumb -0.03470737964826853 53.64060401845298
rclavicle -1.3859645988510303e-15 -1.8410755484166524e-15
rhumerus -20.74533717451078 -11.949554346295907 -81.07582743778416
rradius 30.81788362019836
rwrist -2.1705765954278835
rhand -18.594895901556292 23.44870991453938
rfingers 7.125019999999999
rthumb 7.9049605432039485 -6.34373964601553
28
root 0.6475834557347536 17.774587280078737 -7.754405732868586 -0.7212665329486008 -3.8422398100519617 -7.007359669698927
lfemur -23.79150835114626 -3.718155894696798 -12.269976122709322
ltibia 15.893208588819675
lfoot -5.648666393965731 1.5874468634868029
ltoes -5.738458824132119
rfemur 9.592004951272147 6.265890492886592 33.275814188155685
rtibia 28.94506671093925
rfoot -16.508852071774026 -5.186718818569299
rtoes -6.464823259318104
lowerback 9.58657412162595 2.0578584201706067 6.460774200502742
upperback -0.8720144979133582 3.115484823142276 1.7900261825361865
thorax -5.603836060285223 1.3799714869862085 -1.4721355900713153
lowerneck -15.4447666732183 -3.4504110013813167 -1.30463727734102
upperneck 22.23465466770149 -4.574733455136382 0.12063756549360843
head 9.749841543190044 -2.2000728069258804 -0.42196203878014743
lclavicle -1.3858720238297923e-15 -1.8422518771002124e-15
lhumerus -37.51932970627682 13.573860430596596 79.10780166201387
lradius 13.924139175513671
lwrist -3.3848284818078924
lhand -26.37371168302055 23.028559594334855
lfingers 7.125019999999999
lthumb 0.12433266470033111 53.19159927627051
rclavicle -1.3871129873799841e-15 -1.8421163725348995e-15
rhumerus -21.301739596843642 -13.264955124086866 -80.78608772629883
rradius 30.710230753700046
rwrist -1.6666121149426578
rhand -18.688202812983267 23.181747375433527
rfingers 7.125019999999999
rthumb 7.738034759753241 -6.754552011492786
29
root 0.7272909589637698 17.87183067384481 -6.927726768966716 -1.251503286987243 -4.413350263518135 -5.852536290848502
lfemur -22.464409089455167 -3.3864516006919443 -13.999700700998769
ltibia 19.4184805632455
lfoot -5.231046202013439 -1.8432454330324362
ltoes -3.2316532989728404
rfemur 9.605696240578679 6.3198328367470165 31.168430931564867
rtibia 33.1720988951042
rfoot -12.942401222494095 -2.9747063056650926
rtoes -7.716278325880827
lowerback 9.198463027061226 2.325616546480613 5.616244678843944
upperback -0.6907058268188647 3.359801449618409 1.4306312815641358
thorax -5.325865153874797 1.532880026320116 -1.3259077689403524
lowerneck -15.360443285101601 -3.509917609807323 -1.300222210438176
upperneck 23.096479189168004 -4.708241757389648 0.20371911996478767
head 10.026732681108436 -2.249191807275703 -0.4307833396727769
lclavicle -1.3870472106483613e-15 -1.8433439019200916e-15
lhumerus -37.814182398878344 14.029386222055674 78.81857695960878
lradius 13.881651504094783
lwrist -5.586787795363346
lhand -25.375193392141306 24.464146355660375
lfingers 7.125019999999999
lthumb 0.949585892152025 54.32248223106552
rclavicle -1.3878570988162446e-15 -1.8424541693843038e-15
rhumerus -22.275653856700565 -14.994094949944369 -80.33301681574636
rradius 30.085831370674683
rwrist -1.352055876120068
rhand -18.62053080290821 23.202253250820984
rfingers 7.125019999999999
rthumb 7.893957051317325 -6.577333214231671
30
root 0.7922709969569038 17.92590666270281 -6.211125528594474 -1.9588304261445932 -3.79306787923455 -3.744076286460575
lfemur -19.97083200330918 -3.1107852514260728 -17.235445296758282
ltibia 21.623414173485905
lfoot -3.0406237190713004 -4.886556424334853
ltoes -1.5990584222270146
rfemur 7.11339100619683 4.720739242644029 27.773805795152818
rtibia 41.04698272998286
rfoot -5.834153699664267 -0.6935460750327209
rtoes -5.913326466530416
lowerback 9.111491056506942 2.2464964482491268 3.580592883753939
upperback -0.5135255941631971 3.1283199265533512 0.7384137966336188
thorax -5.383756577578066 1.4857598414230875 -0.8936055927950977
lowerneck -15.454826634697284 -3.459397614939438 -1.262641992748276
upperneck 23.57526228940493 -4.638444151948262 0.08015185518568646
head 10.188915473139804 -2.2199678131539056 -0.45334020181776613
lclavicle -1.3869755579733204e-15 -1.8432777987450357e-15
lhumerus -37.53104010221708 13.64090222967539 78.9223145950251
lradius 13.575474610365106
lwrist -5.0343152568422855
lhand -25.07046122422456 24.702024379611817
lfingers 7.125019999999999
lthumb 1.3811194006203378 54.742611709792754
rclavicle -1.3864756480881632e-15 -1.8415576219298803e-15
rhumerus -23.507895283818403 -16.76457279915716 -79.69263135733857
rradius 29.105695952589976
rwrist -0.017685393476568834
rhand -18.724788422279683 23.072521074989307
rfingers 7.125019999999999
rthumb 7.737511830817352 -6.681169153031065
31
root 0.8578707367128584 17.96781656117148 -5.371085556333922 -2.635767527879063 -3.61398170454222 -3.3048594471322996
lfemur -17.421916727418363 -1.980821928423076 -18.34624768623342
ltibia 24.447790573544243
lfoot -4.429221106989557 -5.025402216468525
ltoes 0.053237998111709484
rfemur 3.0920908819686037 3.2891256108528513 26.228415710384553
rtibia 50.06563466837406
rfoot 3.880333113720397 0.2343360492161013
rtoes -0.32295345866351344
lowerback 9.307402006539133 2.108925623556209 3.3253737729161
upperback -0.49571915513782183 2.9762384281347147 0.6579243149381294
thorax -5.531758209074001 1.4170366505413818 -0.967356558092008
lowerneck -15.338389406550895 -3.4453224510370872 -1.3868506516363408
upperneck 23.799165845741292 -4.6226148693834395 0.09735094017040918
head 10.256719305770787 -2.2025850797587276 -0.426586649286707
lclavicle -1.3866479846571298e-15 -1.842973532003847e-15
lhumerus -37.4142545124005 13.618193859518179 78.83723182679111
lradius 13.883796182258292
lwrist -4.915879505298989
lhand -24.423324347454578 24.92281080846685
lfingers 7.125019999999999
lthumb 2.080159911885199 54.89385852017736
rclavicle -1.3876382011444726e-15 -1.842361351467374e-15
rhumerus -25.010647869149178 -18.774096007822756 -79.02847108601924
rradius 28.1115106662371
rwrist 1.1154567609537676
rhand -18.751315552517262 22.90458571525848
rfingers 7.125019999999999
rthumb 7.757699600184558 -6.768540833879778
32
root 0.9183438314908803 18.013761319156455 -4.842681435688506 -3.392989901214723 -4.72428817201159 -1.6544526056291184
lfemur -14.534756155762418 -1.5839271592580575 -20.652366247554156
ltibia 25.433298024823205
lfoot -6.382426604807316 -3.2105774329925154
ltoes 1.544031498919599
rfemur -3.019956908086039 3.9856163318891618 23.453972378518916
rtibia 60.49457687121057
rfoot 11.835110433657452 -0.6457282477082869
rtoes 9.139770295380176
lowerback 10.148434755786965 2.3772288096398517 1.613713175466967
upperback -0.2878233619314916 3.073021124196105 0.16608251540932595
thorax -5.896644484949696 1.4716500863235742 -0.5567830508908429
lowerneck -15.40763602577138 -3.32891945687148 -1.3904850592760374
upperneck 23.975490897015682 -4.4555550535612936 0.06454075355364425
head 10.372226752128455 -2.133928785416062 -0.4200201752153636
lclavicle -1.387372363706246e-15 -1.8436469061831597e-15
lhumerus -36.89138524994374 12.359753710696655 79.57484880146606
lradius 15.933692501868899
lwrist -2.2055529869288812
lhand -24.84786393508354 25.112338467625612
lfingers 7.125019999999999
lthumb 1.732859478257291 55.12176407412972
rclavicle -1.3893226890602882e-15 -1.843923555779804e-15
rhumerus -26.101318380679896 -20.154969770808744 -78.89183710397816
rradius 27.23296374817756
rwrist 1.7936707931279496
rhand -18.425848708361322 22.239050822693827
rfingers 7.125019999999999
rthumb 7.94160797845188 -7.574319748659063
